<?xml version="1.0" encoding="UTF-8" standalone="no"?>
<!DOCTYPE svg PUBLIC "-//W3C//DTD SVG 1.1//EN" "http://www.w3.org/Graphics/SVG/1.1/DTD/svg11.dtd"><svg width="100%"
  height="100%" viewBox="0 0 410 404" version="1.1" xmlns="http://www.w3.org/2000/svg"
  xmlns:xlink="http://www.w3.org/1999/xlink" xml:space="preserve" xmlns:serif="http://www.serif.com/"
  style="fill-rule:evenodd;clip-rule:evenodd;stroke-linecap:round;stroke-linejoin:round;stroke-miterlimit:1.5;">
  <path
    d="M406.443,199.989c0,-6.031 -4.888,-10.919 -10.919,-10.919c-58.815,-0 -337.075,-0 -386.361,-0c-4.126,-0 -7.47,3.345 -7.47,7.471c-0,23.24 -0,94.083 -0,117.237c-0,4.622 2.333,8.932 6.203,11.458c20.12,13.136 83.221,54.334 99.752,65.127c2.608,1.703 5.656,2.609 8.77,2.609c26.082,0 151.22,0 179.658,0c3.751,0 7.413,-1.135 10.506,-3.258c16.248,-11.149 69.79,-47.892 91.049,-62.48c5.516,-3.785 8.812,-10.046 8.812,-16.735c0,-24.71 0,-85.577 0,-110.51Z" />
  <path
    d="M358.225,244.893c-0,-5.184 -4.203,-9.387 -9.387,-9.387c-45.022,-0 -238.548,-0 -284.558,-0c-2.611,-0 -5.114,1.037 -6.96,2.883c-1.846,1.846 -2.883,4.349 -2.883,6.96l0,47.249c0,5.517 4.404,10.024 9.918,10.153c7.487,0.175 17.71,0.414 25.166,0.588c6.163,0.144 11.898,3.184 15.476,8.205c7.196,10.097 19.502,27.365 26.561,37.272c3.391,4.758 8.873,7.583 14.716,7.583l121.231,-0c7.693,-0 14.947,-3.583 19.622,-9.693c7.734,-10.105 19.724,-25.772 27.011,-35.294c3.976,-5.195 10.106,-8.291 16.647,-8.406c5.601,-0.1 12.47,-0.221 17.934,-0.318c5.277,-0.094 9.506,-4.398 9.506,-9.676c-0,-12.789 -0,-35.393 -0,-48.119Z"
    style="fill:none;stroke:#ebebeb;stroke-width:19.81px;" />
  <path d="M140.558,282.833l136.626,-0" style="fill:none;stroke:#ebebeb;stroke-width:23.28px;" />
  <path
    d="M287.397,124.955c-50.614,23.34 -106.196,26.811 -169.071,1.111l-54.564,52.659c63.01,-27.313 183.015,-26.706 278.207,1.15l-54.572,-54.92Z"
    style="stroke:#000;stroke-width:23.28px;" />
  <circle cx="202.612" cy="88.496" r="66.1" style="stroke:#000;stroke-width:23.28px;" />
  <circle cx="202.533" cy="87.184" r="55.412" style="fill:#fff;" />
  <circle cx="201.958" cy="87.759" r="32.999" style="stroke:#fff;stroke-width:1px;" /></svg>